# Blender 4.0.2
# www.blender.org
o Cube
v -10.000000 -2.500000 51.149086
v -10.000000 2.500000 51.149086
v -10.000000 -2.500000 -48.850914
v -10.000000 2.500000 -48.850914
v 10.000000 -2.500000 51.149086
v 10.000000 2.500000 51.149086
v 10.000000 -2.500000 -48.850914
v 10.000000 2.500000 -48.850914
v -10.000000 -2.500000 1.149089
v -10.000000 2.500000 1.149089
v 10.000000 -2.500000 1.149089
v 10.000000 2.500000 1.149089
v -10.000000 -2.500000 45.863251
v 10.000000 2.500000 45.863251
v -10.000000 2.500000 45.863251
v 10.000000 -2.500000 45.863251
v -10.000000 2.500000 -43.266174
v 10.000000 -2.500000 -43.266174
v -10.000000 -2.500000 -43.266174
v 10.000000 2.500000 -43.266174
v 4.793621 -2.500000 -48.850914
v 4.793621 2.500000 -48.850914
v 4.793621 -2.500000 51.149086
v 4.793621 2.500000 51.149086
v 4.793621 2.500000 1.149089
v 4.793621 -2.500000 1.149089
v 4.793621 2.500000 45.863251
v 4.793621 -2.500000 45.863251
v 4.793621 -2.500000 -43.266174
v 4.793621 2.500000 -43.266174
v -5.032350 -2.500000 -48.850914
v -5.032350 2.500000 51.149086
v -5.032350 -2.500000 1.149089
v -5.032350 -2.500000 45.863251
v -5.032350 -2.500000 -43.266174
v -5.032350 2.500000 -48.850914
v -5.032350 -2.500000 51.149086
v -5.032350 2.500000 1.149089
v -5.032350 2.500000 45.863251
v -5.032350 2.500000 -43.266174
v 4.793621 15.500001 -48.850914
v 10.000000 15.500001 -48.850914
v 10.000000 15.500001 -43.266174
v 4.793621 15.500001 -43.266174
v -10.000000 15.500001 -43.266174
v -10.000000 15.500001 -48.850914
v -5.032350 15.500001 -48.850914
v -5.032350 15.500001 -43.266174
v 10.000000 15.500001 45.863251
v 10.000000 15.500001 51.149086
v 4.793621 15.500001 45.863251
v 4.793621 15.500001 51.149086
v -5.032350 15.500001 51.149086
v -10.000000 15.500001 51.149086
v -10.000000 15.500001 45.863251
v -5.032350 15.500001 45.863251
v 4.793621 20.725725 -48.850914
v 10.000000 20.725725 -48.850914
v 10.000000 20.725725 -43.266174
v 4.793621 20.725725 -43.266174
v -10.000000 20.725725 -43.266174
v -10.000000 20.725725 -48.850914
v -5.032350 20.725725 -48.850914
v -5.032350 20.725725 -43.266174
v 10.000000 20.725725 45.863251
v 10.000000 20.725725 51.149086
v 4.793621 20.725725 45.863251
v 4.793621 20.725725 51.149086
v -5.032350 20.725725 51.149086
v -10.000000 20.725725 51.149086
v -10.000000 20.725725 45.863251
v -5.032350 20.725725 45.863251
v -10.000000 -2.500000 -21.058540
v 10.000000 2.500000 -21.058540
v -10.000000 2.500000 -21.058540
v 10.000000 -2.500000 -21.058540
v 4.793621 -2.500000 -21.058540
v 4.793621 2.500000 -21.058540
v -5.032350 -2.500000 -21.058540
v -5.032350 2.500000 -21.058540
v -10.000000 2.500000 -32.162354
v 10.000000 -2.500000 -32.162354
v -10.000000 -2.500000 -32.162354
v 10.000000 2.500000 -32.162354
v 4.793621 -2.500000 -32.162354
v 4.793621 2.500000 -32.162354
v -5.032350 -2.500000 -32.162354
v -5.032350 2.500000 -32.162354
v -10.000000 -2.500000 -9.954726
v 10.000000 2.500000 -9.954726
v 4.793621 -2.500000 -9.954726
v 4.793621 2.500000 -9.954726
v -5.032350 -2.500000 -9.954726
v -5.032350 2.500000 -9.954726
v -10.000000 2.500000 -9.954726
v 10.000000 -2.500000 -9.954726
v -10.000000 2.500000 23.506172
v 10.000000 -2.500000 23.506172
v -10.000000 -2.500000 23.506172
v 10.000000 2.500000 23.506172
v 4.793621 -2.500000 23.506172
v 4.793621 2.500000 23.506172
v -5.032350 -2.500000 23.506172
v -5.032350 2.500000 23.506172
v -10.000000 2.500000 12.327631
v 10.000000 -2.500000 12.327631
v -10.000000 -2.500000 12.327631
v 10.000000 2.500000 12.327631
v 4.793621 -2.500000 12.327631
v 4.793621 2.500000 12.327631
v -5.032350 -2.500000 12.327631
v -5.032350 2.500000 12.327631
v -10.000000 -2.500000 34.684711
v 10.000000 2.500000 34.684711
v 4.793621 -2.500000 34.684711
v 4.793621 2.500000 34.684711
v -5.032350 -2.500000 34.684711
v -5.032350 2.500000 34.684711
v -10.000000 2.500000 34.684711
v 10.000000 -2.500000 34.684711
v -80.000000 2.500000 -59.954727
v -80.000000 2.500000 -71.058548
v -80.000000 -2.500000 -71.058548
v -80.000000 -2.500000 -59.954727
v -80.000000 -2.500000 62.327629
v -80.000000 -2.500000 73.506172
v -80.000000 2.500000 73.506172
v -80.000000 2.500000 62.327629
v 80.000000 -2.500000 -59.954735
v 80.000000 -2.500000 -71.058548
v 80.000000 2.500000 -71.058548
v 80.000000 2.500000 -59.954735
v 80.000000 2.500000 62.327629
v 80.000000 2.500000 73.506172
v 80.000000 -2.500000 73.506172
v 80.000000 -2.500000 62.327629
vn -1.0000 -0.0000 -0.0000
vn -0.0000 -0.0000 -1.0000
vn 1.0000 -0.0000 -0.0000
vn -0.0000 -0.0000 1.0000
vn -0.0000 -1.0000 -0.0000
vn -0.0000 1.0000 -0.0000
vn 0.5812 -0.0000 -0.8137
vn 0.5812 -0.0000 0.8137
vn -0.5812 -0.0000 0.8137
vn -0.5812 -0.0000 -0.8137
vt 0.625000 0.236038
vt 0.375000 0.250000
vt 0.375000 0.236038
vt 0.625000 0.434920
vt 0.375000 0.500000
vt 0.375000 0.434920
vt 0.625000 0.736785
vt 0.375000 0.750000
vt 0.375000 0.736785
vt 0.625000 0.937904
vt 0.375000 1.000000
vt 0.375000 0.937904
vt 0.309920 0.750000
vt 0.309920 0.736785
vt 0.812904 0.736785
vt 0.812904 0.750000
vt 0.875000 0.597240
vt 0.812904 0.625000
vt 0.812904 0.597240
vt 0.375000 0.597240
vt 0.309920 0.625000
vt 0.309920 0.597240
vt 0.625000 0.597240
vt 0.375000 0.625000
vt 0.625000 0.097054
vt 0.375000 0.125000
vt 0.375000 0.097054
vt 0.625000 0.000000
vt 0.375000 0.013215
vt 0.375000 0.000000
vt 0.875000 0.708839
vt 0.812904 0.708839
vt 0.375000 0.708839
vt 0.309920 0.708839
vt 0.625000 0.708839
vt 0.625000 0.500000
vt 0.375000 0.513962
vt 0.309920 0.513962
vt 0.309920 0.500000
vt 0.812904 0.500000
vt 0.812904 0.513962
vt 0.625000 0.208279
vt 0.375000 0.208279
vt 0.625000 0.513962
vt 0.187096 0.513962
vt 0.187096 0.500000
vt 0.187096 0.736785
vt 0.187096 0.708839
vt 0.690080 0.708839
vt 0.187096 0.625000
vt 0.187096 0.597240
vt 0.690080 0.597240
vt 0.625000 0.625000
vt 0.690080 0.736785
vt 0.187096 0.750000
vt 0.625000 0.750000
vt 0.375000 0.815080
vt 0.625000 0.312096
vt 0.375000 0.312096
vt 0.625000 0.250000
vt 0.125000 0.750000
vt 0.125000 0.736785
vt 0.125000 0.625000
vt 0.125000 0.597240
vt 0.125000 0.708839
vt 0.125000 0.513962
vt 0.125000 0.500000
vt 0.690080 0.513962
vt 0.690080 0.500000
vt 0.690080 0.625000
vt 0.690080 0.750000
vt 0.625000 0.815080
vt 0.625000 0.013215
vt 0.875000 0.513962
vt 0.625000 1.000000
vt 0.875000 0.736785
vt 0.000000 0.000000
vt 0.875000 0.500000
vt 0.812904 0.541721
vt 0.690080 0.569481
vt 0.690080 0.541721
vt 0.187096 0.541721
vt 0.125000 0.569481
vt 0.125000 0.541721
vt 0.625000 0.569481
vt 0.625000 0.541721
vt 0.309920 0.541721
vt 0.187096 0.569481
vt 0.375000 0.180519
vt 0.625000 0.180519
vt 0.375000 0.569481
vt 0.375000 0.541721
vt 0.309920 0.569481
vt 0.875000 0.541721
vt 0.812904 0.569481
vt 0.625000 0.125000
vt 0.375000 0.152760
vt 0.875000 0.569481
vt 0.812904 0.652946
vt 0.690080 0.680893
vt 0.690080 0.652946
vt 0.187096 0.652946
vt 0.125000 0.680893
vt 0.125000 0.652946
vt 0.625000 0.680893
vt 0.625000 0.652946
vt 0.309920 0.652946
vt 0.187096 0.680893
vt 0.375000 0.652946
vt 0.309920 0.680893
vt 0.875000 0.652946
vt 0.812904 0.680893
vt 0.625000 0.041161
vt 0.375000 0.069107
vt 0.375000 0.041161
vt 0.875000 0.625000
vt 0.625000 0.069107
vt 0.375000 0.680893
vt 0.875000 0.680893
vt 0.625000 0.152760
vt 0.875000 0.750000
s 0
f 17/1/1 3/2/1 19/3/1
f 22/4/2 7/5/2 21/6/2
f 14/7/3 5/8/3 16/9/3
f 32/10/4 1/11/4 37/12/4
f 16/9/5 23/13/5 28/14/5
f 39/15/3 53/16/3 32/16/3
f 95/17/6 38/18/6 94/19/6
f 96/20/5 26/21/5 91/22/5
f 90/23/3 11/24/3 96/20/3
f 105/25/1 9/26/1 107/27/1
f 2/28/1 13/29/1 1/30/1
f 119/31/6 39/15/6 118/32/6
f 120/33/5 28/14/5 115/34/5
f 114/35/3 16/9/3 120/33/3
f 8/36/3 18/37/3 7/5/3
f 7/5/5 29/38/5 21/39/5
f 36/40/3 48/41/3 40/41/3
f 81/42/1 19/3/1 83/43/1
f 8/36/3 43/44/3 20/44/3
f 21/39/5 35/45/5 31/46/5
f 115/34/5 34/47/5 117/48/5
f 116/49/6 14/7/6 114/35/6
f 91/22/5 33/50/5 93/51/5
f 92/52/6 12/53/6 90/23/6
f 27/54/2 49/7/2 14/7/2
f 28/14/5 37/55/5 34/47/5
f 6/56/4 23/57/4 5/8/4
f 36/58/2 21/6/2 31/59/2
f 4/60/2 31/59/2 3/2/2
f 34/47/5 1/61/5 13/62/5
f 93/51/5 9/63/5 89/64/5
f 117/48/5 13/62/5 113/65/5
f 31/46/5 19/66/5 3/67/5
f 36/40/6 30/68/6 22/69/6
f 118/32/6 27/54/6 116/49/6
f 94/19/6 25/70/6 92/52/6
f 39/15/6 24/71/6 27/54/6
f 24/72/4 37/12/4 23/57/4
f 45/1/1 62/60/1 46/60/1
f 22/4/2 42/36/2 8/36/2
f 20/44/4 44/68/4 30/68/4
f 30/68/1 41/69/1 22/69/1
f 54/28/1 71/73/1 55/73/1
f 40/41/4 45/74/4 17/74/4
f 4/60/2 47/58/2 36/58/2
f 17/1/1 46/60/1 4/60/1
f 50/56/4 68/72/4 52/72/4
f 14/7/3 50/56/3 6/56/3
f 24/71/1 51/54/1 27/54/1
f 6/56/4 52/72/4 24/72/4
f 42/36/3 59/44/3 43/44/3
f 32/10/4 54/75/4 2/75/4
f 2/28/1 55/73/1 15/73/1
f 15/76/2 56/15/2 39/15/2
f 52/77/4 69/77/4 53/77/4
f 53/10/4 70/75/4 54/75/4
f 41/4/2 58/36/2 42/36/2
f 57/69/6 59/44/6 58/36/6
f 62/78/6 64/41/6 63/40/6
f 67/54/6 66/56/6 65/7/6
f 71/76/6 69/16/6 72/15/6
f 57/69/6 64/41/6 60/68/6
f 67/54/6 69/16/6 68/71/6
f 64/77/5 67/77/5 72/77/5
f 47/77/2 57/77/2 41/77/2
f 49/77/1 59/77/1 43/77/1
f 46/60/2 63/58/2 47/58/2
f 49/7/3 66/56/3 50/56/3
f 45/77/3 71/77/3 55/77/3
f 88/79/6 78/80/6 86/81/6
f 87/82/5 73/83/5 83/84/5
f 86/81/6 74/85/6 84/86/6
f 85/87/5 79/88/5 87/82/5
f 73/89/7 122/90/7 75/90/7
f 84/86/3 76/91/3 82/92/3
f 82/92/5 77/93/5 85/87/5
f 81/94/6 80/95/6 88/79/6
f 17/74/6 88/79/6 40/41/6
f 18/37/5 85/87/5 29/38/5
f 20/44/3 82/92/3 18/37/3
f 29/38/5 87/82/5 35/45/5
f 30/68/6 84/86/6 20/44/6
f 35/45/5 83/84/5 19/66/5
f 40/41/6 86/81/6 30/68/6
f 75/90/1 83/43/1 73/89/1
f 10/96/1 89/97/1 9/26/1
f 80/95/6 92/52/6 78/80/6
f 79/88/5 89/64/5 73/83/5
f 78/80/6 90/23/6 74/85/6
f 77/93/5 93/51/5 79/88/5
f 74/85/6 132/23/6 131/85/6
f 76/91/5 91/22/5 77/93/5
f 75/98/6 94/19/6 80/95/6
f 112/99/6 102/100/6 110/101/6
f 111/102/5 99/103/5 107/104/5
f 110/101/6 100/105/6 108/106/6
f 109/107/5 103/108/5 111/102/5
f 100/105/6 133/106/6 108/106/6
f 106/109/5 101/110/5 109/107/5
f 105/111/6 104/112/6 112/99/6
f 119/113/1 99/114/1 113/115/1
f 10/116/6 112/99/6 38/18/6
f 11/24/5 109/107/5 26/21/5
f 12/53/3 106/109/3 11/24/3
f 26/21/5 111/102/5 33/50/5
f 25/70/6 108/106/6 12/53/6
f 33/50/5 107/104/5 9/63/5
f 38/18/6 110/101/6 25/70/6
f 97/117/8 126/114/8 99/114/8
f 15/73/1 113/115/1 13/29/1
f 104/112/6 116/49/6 102/100/6
f 103/108/5 113/65/5 99/103/5
f 102/100/6 114/35/6 100/105/6
f 101/110/5 117/48/5 103/108/5
f 100/105/3 120/33/3 98/118/3
f 98/118/5 115/34/5 101/110/5
f 97/119/6 118/32/6 104/112/6
f 121/120/1 123/89/1 124/97/1
f 73/83/5 124/64/5 123/83/5
f 75/98/6 121/17/6 95/17/6
f 95/120/9 124/97/9 89/97/9
f 127/117/1 125/27/1 126/114/1
f 99/103/5 125/104/5 107/104/5
f 107/27/10 128/25/10 105/25/10
f 97/119/6 128/111/6 127/119/6
f 131/85/3 129/20/3 130/91/3
f 76/91/5 129/20/5 96/20/5
f 96/20/8 132/23/8 90/23/8
f 74/85/10 130/91/10 76/91/10
f 133/106/3 135/118/3 136/109/3
f 98/118/9 134/105/9 100/105/9
f 98/118/5 136/109/5 135/118/5
f 108/106/7 136/109/7 106/109/7
f 17/1/1 4/60/1 3/2/1
f 22/4/2 8/36/2 7/5/2
f 14/7/3 6/56/3 5/8/3
f 32/10/4 2/75/4 1/11/4
f 16/9/5 5/8/5 23/13/5
f 39/15/3 56/15/3 53/16/3
f 95/17/6 10/116/6 38/18/6
f 96/20/5 11/24/5 26/21/5
f 90/23/3 12/53/3 11/24/3
f 105/25/1 10/96/1 9/26/1
f 2/28/1 15/73/1 13/29/1
f 119/31/6 15/76/6 39/15/6
f 120/33/5 16/9/5 28/14/5
f 114/35/3 14/7/3 16/9/3
f 8/36/3 20/44/3 18/37/3
f 7/5/5 18/37/5 29/38/5
f 36/40/3 47/40/3 48/41/3
f 81/42/1 17/1/1 19/3/1
f 8/36/3 42/36/3 43/44/3
f 21/39/5 29/38/5 35/45/5
f 115/34/5 28/14/5 34/47/5
f 116/49/6 27/54/6 14/7/6
f 91/22/5 26/21/5 33/50/5
f 92/52/6 25/70/6 12/53/6
f 27/54/2 51/54/2 49/7/2
f 28/14/5 23/13/5 37/55/5
f 6/56/4 24/72/4 23/57/4
f 36/58/2 22/4/2 21/6/2
f 4/60/2 36/58/2 31/59/2
f 34/47/5 37/55/5 1/61/5
f 93/51/5 33/50/5 9/63/5
f 117/48/5 34/47/5 13/62/5
f 31/46/5 35/45/5 19/66/5
f 36/40/6 40/41/6 30/68/6
f 118/32/6 39/15/6 27/54/6
f 94/19/6 38/18/6 25/70/6
f 39/15/6 32/16/6 24/71/6
f 24/72/4 32/10/4 37/12/4
f 45/1/1 61/1/1 62/60/1
f 22/4/2 41/4/2 42/36/2
f 20/44/4 43/44/4 44/68/4
f 30/68/1 44/68/1 41/69/1
f 54/28/1 70/28/1 71/73/1
f 40/41/4 48/41/4 45/74/4
f 4/60/2 46/60/2 47/58/2
f 17/1/1 45/1/1 46/60/1
f 50/56/4 66/56/4 68/72/4
f 14/7/3 49/7/3 50/56/3
f 24/71/1 52/71/1 51/54/1
f 6/56/4 50/56/4 52/72/4
f 42/36/3 58/36/3 59/44/3
f 32/10/4 53/10/4 54/75/4
f 2/28/1 54/28/1 55/73/1
f 15/76/2 55/76/2 56/15/2
f 52/77/4 68/77/4 69/77/4
f 53/10/4 69/10/4 70/75/4
f 41/4/2 57/4/2 58/36/2
f 57/69/6 60/68/6 59/44/6
f 62/78/6 61/74/6 64/41/6
f 67/54/6 68/71/6 66/56/6
f 71/76/6 70/121/6 69/16/6
f 57/69/6 63/40/6 64/41/6
f 67/54/6 72/15/6 69/16/6
f 60/77/5 59/77/5 65/77/5
f 60/77/5 65/77/5 67/77/5
f 71/77/5 61/77/5 64/77/5
f 64/77/5 60/77/5 67/77/5
f 72/77/5 71/77/5 64/77/5
f 47/77/2 63/77/2 57/77/2
f 49/77/1 65/77/1 59/77/1
f 46/60/2 62/60/2 63/58/2
f 49/7/3 65/7/3 66/56/3
f 45/77/3 61/77/3 71/77/3
f 88/79/6 80/95/6 78/80/6
f 87/82/5 79/88/5 73/83/5
f 86/81/6 78/80/6 74/85/6
f 85/87/5 77/93/5 79/88/5
f 73/89/7 123/89/7 122/90/7
f 84/86/3 74/85/3 76/91/3
f 82/92/5 76/91/5 77/93/5
f 81/94/6 75/98/6 80/95/6
f 17/74/6 81/94/6 88/79/6
f 18/37/5 82/92/5 85/87/5
f 20/44/3 84/86/3 82/92/3
f 29/38/5 85/87/5 87/82/5
f 30/68/6 86/81/6 84/86/6
f 35/45/5 87/82/5 83/84/5
f 40/41/6 88/79/6 86/81/6
f 75/90/1 81/42/1 83/43/1
f 10/96/1 95/120/1 89/97/1
f 80/95/6 94/19/6 92/52/6
f 79/88/5 93/51/5 89/64/5
f 78/80/6 92/52/6 90/23/6
f 77/93/5 91/22/5 93/51/5
f 74/85/6 90/23/6 132/23/6
f 76/91/5 96/20/5 91/22/5
f 75/98/6 95/17/6 94/19/6
f 112/99/6 104/112/6 102/100/6
f 111/102/5 103/108/5 99/103/5
f 110/101/6 102/100/6 100/105/6
f 109/107/5 101/110/5 103/108/5
f 100/105/6 134/105/6 133/106/6
f 106/109/5 98/118/5 101/110/5
f 105/111/6 97/119/6 104/112/6
f 119/113/1 97/117/1 99/114/1
f 10/116/6 105/111/6 112/99/6
f 11/24/5 106/109/5 109/107/5
f 12/53/3 108/106/3 106/109/3
f 26/21/5 109/107/5 111/102/5
f 25/70/6 110/101/6 108/106/6
f 33/50/5 111/102/5 107/104/5
f 38/18/6 112/99/6 110/101/6
f 97/117/8 127/117/8 126/114/8
f 15/73/1 119/113/1 113/115/1
f 104/112/6 118/32/6 116/49/6
f 103/108/5 117/48/5 113/65/5
f 102/100/6 116/49/6 114/35/6
f 101/110/5 115/34/5 117/48/5
f 100/105/3 114/35/3 120/33/3
f 98/118/5 120/33/5 115/34/5
f 97/119/6 119/31/6 118/32/6
f 121/120/1 122/90/1 123/89/1
f 73/83/5 89/64/5 124/64/5
f 75/98/6 122/98/6 121/17/6
f 95/120/9 121/120/9 124/97/9
f 127/117/1 128/25/1 125/27/1
f 99/103/5 126/103/5 125/104/5
f 107/27/10 125/27/10 128/25/10
f 97/119/6 105/111/6 128/111/6
f 131/85/3 132/23/3 129/20/3
f 76/91/5 130/91/5 129/20/5
f 96/20/8 129/20/8 132/23/8
f 74/85/10 131/85/10 130/91/10
f 133/106/3 134/105/3 135/118/3
f 98/118/9 135/118/9 134/105/9
f 98/118/5 106/109/5 136/109/5
f 108/106/7 133/106/7 136/109/7
